<svg xmlns="http://www.w3.org/2000/svg" viewBox="0 0 680 180" role="img" aria-labelledby="title desc">
  <title id="title">퍼뜩 로고</title>
  <desc id="desc">어두운 배경용 금빛 광부 심볼과 퍼뜩 워드마크 조합</desc>
  <defs>
    <linearGradient id="gold" x1="16" y1="8" x2="124" y2="148" gradientUnits="userSpaceOnUse">
      <stop stop-color="#FFF0A6"/><stop offset=".4" stop-color="#F6C85B"/><stop offset="1" stop-color="#9A641D"/>
    </linearGradient>
  </defs>
  <g transform="translate(16 18) scale(1.1)">
    <path fill="url(#gold)" d="M61 31C43 30 31 19 30 5c17-1 29 8 34 22C68 13 80 4 97 6c-2 14-14 25-31 25v13h-5V31Z"/>
    <path fill="url(#gold)" d="M22 75c0-24 18-43 42-43s42 19 42 43v25H22V75Z"/>
    <rect x="29" y="58" width="70" height="48" rx="22" fill="#050607" stroke="#F6C85B" stroke-width="4"/>
    <ellipse cx="54" cy="81" rx="6" ry="12" fill="#FFFDF7"/><path d="m81 74-11 7 11 7" fill="none" stroke="#FFFDF7" stroke-linecap="round" stroke-linejoin="round" stroke-width="7"/>
  </g>
  <text x="190" y="104" fill="#F8F3E8" font-family="Pretendard Variable, Pretendard, SUIT, Noto Sans KR, sans-serif" font-size="92" font-weight="800" letter-spacing="-7">퍼뜩</text>
  <text x="196" y="145" fill="#F6C85B" font-family="Arial, sans-serif" font-size="19" font-weight="700" letter-spacing="9">PUTDUK MINING</text>
</svg>
